<svg xmlns="http://www.w3.org/2000/svg" xmlns:xlink="http://www.w3.org/1999/xlink" width="512" zoomAndPan="magnify" viewBox="0 0 384 383.999986" height="512" preserveAspectRatio="xMidYMid meet" version="1.0"><path fill="#a6a6a6" d="M 255.480469 224.550781 C 259.539062 227.257812 266.832031 228.835938 270.96875 231.316406 C 271.871094 232.070312 272.09375 234.550781 272.320312 235.828125 C 276.230469 255.074219 279.6875 268.230469 285.703125 287.25 L 291.714844 304.085938 L 284.949219 296.042969 C 276.90625 284.917969 269.914062 255.148438 267.585938 241.242188 C 266.15625 233.496094 267.433594 233.195312 263.601562 230.789062 L 254.804688 224.777344 Z M 260.820312 172.53125 C 241.574219 170.949219 229.019531 174.558594 219.320312 174.332031 C 236.914062 170.800781 232.027344 170.199219 253.527344 168.394531 C 267.808594 167.191406 276.679688 169.972656 289.234375 172.078125 C 288.632812 165.914062 286.90625 159.898438 285.925781 153.734375 C 285.023438 147.421875 284.273438 141.332031 283.671875 134.789062 L 284.199219 135.617188 C 284.949219 137.121094 284.199219 135.542969 284.5 136.371094 L 297.429688 180.574219 C 281.191406 176.589844 284.121094 174.558594 260.820312 172.53125 Z M 239.917969 95.925781 L 241.722656 96.976562 Z M 101.371094 260.636719 C 101.445312 260.710938 101.59375 261.160156 101.59375 261.085938 C 101.671875 260.9375 101.894531 261.160156 102.046875 261.3125 C 103.699219 259.882812 129.5625 248.832031 132.792969 247.253906 C 149.632812 239.058594 174.441406 224.550781 184.816406 209.96875 C 187.972656 205.683594 190.980469 200.117188 189.101562 192.902344 C 186.84375 184.632812 181.957031 183.730469 179.027344 181.324219 C 186.242188 180.796875 190.753906 181.097656 195.265625 184.632812 C 198.273438 187.113281 201.054688 193.128906 200.601562 199.292969 C 199.398438 217.183594 178.050781 232.972656 164.367188 242.367188 C 144.898438 255.597656 106.632812 271.386719 84.378906 280.707031 C 81.824219 281.761719 72.050781 285.746094 70.773438 286.796875 C 69.71875 287.773438 64.382812 297.097656 63.253906 299.125 C 58.746094 306.871094 51.902344 317.09375 48.597656 323.40625 L 68.519531 314.085938 C 75.507812 310.929688 81.972656 308.070312 89.039062 305.066406 C 102.648438 299.277344 116.78125 293.261719 129.9375 287.171875 C 147.300781 278.980469 170.230469 265.898438 183.539062 252.59375 L 197.070312 237.257812 L 197.292969 264.46875 L 230.972656 284.691406 C 242.25 291.007812 253.527344 298.222656 265.027344 304.765625 C 276.078125 311.152344 288.03125 318.222656 299.082031 324.6875 L 332.914062 344.007812 C 332.613281 342.277344 327.648438 332.503906 326.445312 329.949219 C 319.90625 315.0625 314.496094 300.554688 309.609375 284.765625 C 303.292969 264.09375 297.429688 240.488281 293.292969 218.6875 C 278.859375 214.628906 275.328125 215.90625 258.261719 208.839844 C 253.976562 206.960938 246.460938 203.425781 243.753906 200.796875 C 241.199219 198.164062 237.738281 190.570312 236.3125 186.0625 C 255.105469 183.882812 276.453125 185.308594 293.671875 191.625 C 296.453125 192.601562 295.925781 192.527344 296.675781 195.535156 L 306.074219 228.835938 C 318.328125 231.242188 325.621094 234.699219 335.84375 238.308594 C 334.941406 234.550781 331.410156 227.03125 329.679688 222.972656 C 324.042969 209.890625 317.277344 189.519531 312.539062 175.835938 C 308.855469 165.238281 305.472656 154.335938 302.242188 143.359375 C 300.960938 138.925781 293.972656 112.011719 292.917969 110.507812 L 282.394531 118.027344 C 261.871094 130.28125 251.269531 135.390625 227.441406 144.414062 C 215.410156 149.074219 203.609375 154.109375 192.03125 159.375 C 186.09375 161.929688 180.679688 164.785156 175.269531 167.792969 C 165.71875 173.429688 165.417969 174.933594 160.835938 177.941406 L 164.667969 172.679688 C 182.257812 152.15625 198.574219 144.941406 223.605469 134.113281 C 228.117188 132.234375 246.460938 125.542969 248.488281 123.964844 C 234.730469 119.304688 214.660156 122.3125 202.105469 126.597656 C 190.226562 130.582031 181.28125 136.070312 171.960938 143.660156 C 170.757812 144.640625 169.929688 145.84375 168.726562 146.820312 C 158.878906 155.691406 152.1875 165.460938 146.097656 177.714844 C 137.230469 195.609375 138.054688 201.847656 134.222656 218.539062 C 133.46875 194.179688 135.800781 179.296875 146.023438 160.953125 C 163.390625 129.828125 200.753906 108.027344 236.914062 114.570312 C 258.636719 118.554688 251.046875 123.816406 262.019531 116.972656 C 265.855469 114.570312 269.3125 112.238281 272.621094 109.984375 C 276.15625 107.652344 278.9375 105.019531 282.019531 102.617188 C 261.871094 87.582031 240.820312 79.386719 213.683594 79.914062 C 207.519531 80.0625 197.070312 81.339844 191.207031 83.519531 C 190.527344 83.820312 190.078125 83.898438 189.550781 84.199219 C 188.800781 84.574219 188.722656 84.648438 188.347656 84.949219 C 197.21875 84.949219 208.796875 86.300781 217.066406 87.957031 C 220.148438 88.632812 237.214844 93.066406 239.917969 96 C 232.25 95.625 225.410156 91.1875 203.609375 93.21875 C 185.792969 94.949219 166.699219 102.691406 153.542969 113.96875 C 136.550781 128.476562 124.296875 146.59375 119.9375 169.523438 C 116.78125 185.535156 117.007812 208.085938 121.441406 224.175781 C 123.546875 231.992188 121.441406 232.070312 117.984375 237.78125 C 115.425781 241.84375 112.871094 245.75 110.089844 249.660156 Z M 101.371094 260.636719 " fill-opacity="1" fill-rule="evenodd"/><path fill="#ff0000" d="M 62.730469 103.441406 C 57.46875 115.171875 48.972656 141.78125 49.121094 155.914062 L 80.621094 171.550781 L 48.144531 168.167969 C 48.597656 182.226562 48.898438 191.398438 51.152344 204.628906 L 80.621094 205.382812 L 53.859375 216.957031 C 55.136719 224.703125 59.722656 235.453125 62.652344 242.820312 C 66.035156 251.089844 70.472656 258.832031 74.230469 266.125 L 93.324219 231.316406 C 94.828125 228.460938 96.183594 225.453125 97.835938 222.445312 C 100.691406 216.957031 100.917969 218.539062 99.640625 211.695312 C 95.28125 188.242188 97.386719 163.28125 106.40625 142.15625 C 112.34375 128.25 118.210938 119.980469 127.304688 108.554688 C 134.746094 99.457031 147.152344 90.664062 157.449219 84.648438 C 168.652344 78.109375 183.460938 72.394531 197.746094 70.363281 C 232.402344 65.253906 256.382812 74.125 283.898438 90.4375 C 284.5 89.382812 286.753906 82.917969 287.65625 81.113281 C 289.160156 77.882812 290.738281 74.875 292.46875 72.019531 C 299.234375 60.441406 307.878906 50.894531 318.179688 42.097656 C 321.863281 38.941406 329.078125 34.582031 333.890625 32.101562 C 333.964844 31.949219 334.492188 31.800781 334.640625 31.800781 L 335.242188 31.199219 C 330.65625 27.289062 302.464844 14.734375 294.496094 12.628906 C 291.492188 16.085938 288.707031 20.75 286.226562 24.582031 C 283.445312 28.867188 280.890625 32.625 278.183594 36.835938 L 261.417969 60.667969 C 261.417969 60.667969 266.15625 49.390625 266.683594 47.886719 L 277.582031 21.800781 C 279.460938 17.742188 281.867188 13.003906 283.144531 9.019531 C 268.636719 5.261719 240.070312 0 225.710938 2.179688 C 225.183594 9.773438 220.597656 49.390625 218.570312 53.449219 C 217.140625 36.988281 215.335938 18.871094 215.335938 2.179688 C 197.070312 1.578125 167.375 10.449219 152.339844 16.839844 C 154.59375 28.867188 163.917969 57.808594 164.367188 66.980469 L 141.515625 21.800781 C 139.109375 22.628906 119.9375 33.605469 116.78125 37.136719 L 133.847656 69.839844 C 135.726562 73.371094 138.054688 77.582031 139.109375 80.8125 L 108.136719 43.976562 C 102.648438 47.4375 95.429688 56.308594 91.371094 60.292969 L 81.75 72.546875 C 77.988281 77.507812 69.945312 88.183594 68.667969 93.066406 C 71.300781 94.871094 73.328125 96.902344 76.1875 99.382812 L 90.84375 112.464844 C 92.121094 113.667969 93.175781 114.492188 94.605469 115.695312 C 96.40625 117.273438 97.160156 117.953125 98.4375 119.53125 Z M 62.730469 103.441406 " fill-opacity="1" fill-rule="evenodd"/><path fill="#ff0000" d="M 220.375 354.757812 C 220.375 354.757812 220.222656 354.980469 220.148438 354.832031 Z M 201.578125 317.84375 C 200.902344 317.394531 202.332031 318.445312 201.578125 317.84375 Z M 157.074219 285.445312 C 159.40625 287.773438 165.71875 290.554688 169.179688 292.585938 C 175.71875 296.496094 180.53125 300.101562 186.242188 304.386719 C 188.199219 305.890625 189.550781 307.09375 191.507812 308.671875 C 195.339844 311.832031 197.972656 313.859375 201.503906 317.621094 C 190.527344 311.304688 177.449219 305.667969 164.59375 300.328125 C 141.289062 290.554688 147.527344 290.554688 127.757812 300.78125 C 136.777344 304.3125 145.347656 307.320312 154.292969 311.152344 C 174.140625 319.875 198.496094 335.210938 215.335938 350.246094 C 217.066406 351.75 218.871094 352.726562 220.148438 354.378906 C 199.25 343.707031 176.394531 332.429688 153.542969 322.65625 C 141.738281 317.621094 129.710938 313.710938 116.929688 310.101562 C 111.96875 308.671875 111.742188 307.621094 107.683594 309.875 C 101.292969 313.335938 91.597656 316.941406 84.378906 320.851562 C 84.230469 320.925781 83.476562 321.378906 83.253906 321.453125 L 82.5 321.980469 C 119.636719 323.332031 157.675781 340.171875 187.445312 354.003906 C 219.320312 368.8125 255.03125 381.367188 294.273438 384 L 290.664062 380.242188 C 289.160156 379.113281 288.40625 378.363281 286.980469 376.933594 L 273.898438 362.273438 C 272.171875 359.867188 270.066406 356.863281 268.335938 354.378906 C 252.25 330.25 258.035156 335.285156 264.425781 316.941406 C 262.097656 314.160156 201.054688 279.054688 193.234375 274.394531 C 183.761719 268.753906 186.320312 270.710938 185.566406 265.898438 C 184.0625 265.746094 185.265625 265.222656 182.035156 268.152344 L 164.367188 281.007812 C 162.335938 282.210938 159.332031 284.542969 157.074219 285.445312 Z M 157.074219 285.445312 " fill-opacity="1" fill-rule="evenodd"/></svg>