<svg xmlns="http://www.w3.org/2000/svg" xmlns:xlink="http://www.w3.org/1999/xlink" width="708" zoomAndPan="magnify" viewBox="0 0 531 72" height="96" preserveAspectRatio="xMidYMid meet" version="1.0"><defs><g/><clipPath id="85a16a7bea"><path d="M 15 49 L 55 49 L 55 71.332031 L 15 71.332031 Z M 15 49 " clip-rule="nonzero"/></clipPath><clipPath id="0c534fb037"><rect x="0" width="458" y="0" height="49"/></clipPath></defs><path fill="#a6a6a6" d="M 46.90625 42.058594 C 47.648438 42.554688 48.988281 42.84375 49.75 43.300781 C 49.914062 43.4375 49.953125 43.894531 49.996094 44.128906 C 50.714844 47.660156 51.347656 50.078125 52.453125 53.566406 L 53.558594 56.660156 L 52.316406 55.183594 C 50.839844 53.140625 49.554688 47.675781 49.128906 45.121094 C 48.863281 43.699219 49.097656 43.644531 48.394531 43.203125 L 46.78125 42.097656 Z M 47.886719 32.507812 C 44.351562 32.214844 42.046875 32.878906 40.265625 32.835938 C 43.496094 32.1875 42.597656 32.078125 46.546875 31.746094 C 49.167969 31.527344 50.796875 32.035156 53.101562 32.421875 C 52.992188 31.292969 52.675781 30.1875 52.496094 29.054688 C 52.328125 27.898438 52.191406 26.777344 52.082031 25.578125 L 52.175781 25.730469 C 52.316406 26.003906 52.175781 25.714844 52.234375 25.867188 L 54.605469 33.984375 C 51.625 33.25 52.164062 32.878906 47.886719 32.507812 Z M 44.046875 18.441406 L 44.378906 18.636719 Z M 18.609375 48.683594 C 18.625 48.695312 18.652344 48.777344 18.652344 48.765625 C 18.667969 48.738281 18.707031 48.777344 18.734375 48.804688 C 19.039062 48.542969 23.785156 46.515625 24.378906 46.226562 C 27.472656 44.71875 32.027344 42.058594 33.929688 39.378906 C 34.511719 38.59375 35.0625 37.570312 34.71875 36.246094 C 34.304688 34.726562 33.40625 34.5625 32.867188 34.121094 C 34.191406 34.023438 35.019531 34.078125 35.847656 34.726562 C 36.402344 35.183594 36.914062 36.289062 36.828125 37.421875 C 36.609375 40.703125 32.6875 43.601562 30.175781 45.328125 C 26.601562 47.757812 19.578125 50.65625 15.492188 52.367188 C 15.023438 52.5625 13.226562 53.292969 12.992188 53.484375 C 12.800781 53.664062 11.820312 55.375 11.613281 55.75 C 10.785156 57.171875 9.527344 59.046875 8.921875 60.207031 L 12.578125 58.496094 C 13.863281 57.914062 15.050781 57.390625 16.347656 56.839844 C 18.84375 55.777344 21.441406 54.671875 23.855469 53.554688 C 27.042969 52.050781 31.253906 49.648438 33.695312 47.207031 L 36.179688 44.390625 L 36.222656 49.386719 L 42.40625 53.097656 C 44.476562 54.257812 46.546875 55.582031 48.65625 56.785156 C 50.6875 57.957031 52.878906 59.253906 54.910156 60.441406 L 61.121094 63.988281 C 61.066406 63.671875 60.152344 61.875 59.933594 61.40625 C 58.734375 58.675781 57.738281 56.011719 56.84375 53.113281 C 55.683594 49.316406 54.605469 44.984375 53.847656 40.980469 C 51.195312 40.234375 50.546875 40.46875 47.414062 39.171875 C 46.628906 38.828125 45.25 38.179688 44.75 37.695312 C 44.28125 37.210938 43.648438 35.820312 43.386719 34.992188 C 46.835938 34.589844 50.753906 34.851562 53.917969 36.011719 C 54.425781 36.191406 54.332031 36.179688 54.46875 36.730469 L 56.191406 42.84375 C 58.441406 43.285156 59.78125 43.921875 61.660156 44.582031 C 61.492188 43.894531 60.84375 42.511719 60.527344 41.765625 C 59.492188 39.367188 58.25 35.625 57.378906 33.113281 C 56.703125 31.167969 56.082031 29.167969 55.488281 27.152344 C 55.253906 26.335938 53.972656 21.394531 53.777344 21.121094 L 51.847656 22.5 C 48.078125 24.75 46.132812 25.6875 41.757812 27.34375 C 39.546875 28.199219 37.382812 29.125 35.253906 30.089844 C 34.164062 30.558594 33.171875 31.085938 32.179688 31.636719 C 30.425781 32.671875 30.371094 32.949219 29.527344 33.5 L 30.230469 32.535156 C 33.460938 28.765625 36.457031 27.441406 41.050781 25.453125 C 41.882812 25.109375 45.25 23.878906 45.621094 23.589844 C 43.09375 22.734375 39.410156 23.285156 37.105469 24.074219 C 34.925781 24.804688 33.28125 25.8125 31.570312 27.207031 C 31.351562 27.386719 31.199219 27.605469 30.976562 27.785156 C 29.167969 29.414062 27.941406 31.207031 26.824219 33.457031 C 25.195312 36.742188 25.347656 37.890625 24.640625 40.953125 C 24.503906 36.480469 24.933594 33.75 26.808594 30.382812 C 29.996094 24.667969 36.855469 20.664062 43.496094 21.867188 C 47.484375 22.597656 46.089844 23.5625 48.105469 22.304688 C 48.808594 21.867188 49.445312 21.4375 50.050781 21.023438 C 50.699219 20.59375 51.210938 20.113281 51.777344 19.671875 C 48.078125 16.910156 44.214844 15.40625 39.230469 15.503906 C 38.097656 15.53125 36.179688 15.765625 35.105469 16.164062 C 34.980469 16.21875 34.898438 16.234375 34.800781 16.289062 C 34.664062 16.359375 34.648438 16.371094 34.578125 16.425781 C 36.207031 16.425781 38.332031 16.675781 39.851562 16.980469 C 40.417969 17.101562 43.550781 17.917969 44.046875 18.457031 C 42.640625 18.386719 41.382812 17.574219 37.382812 17.945312 C 34.109375 18.261719 30.605469 19.683594 28.191406 21.753906 C 25.070312 24.417969 22.820312 27.746094 22.019531 31.953125 C 21.441406 34.894531 21.480469 39.035156 22.296875 41.988281 C 22.683594 43.421875 22.296875 43.4375 21.660156 44.484375 C 21.191406 45.230469 20.722656 45.949219 20.210938 46.667969 Z M 18.609375 48.683594 " fill-opacity="1" fill-rule="evenodd"/><path fill="#ff0000" d="M 11.515625 19.820312 C 10.550781 21.976562 8.992188 26.859375 9.019531 29.457031 L 14.800781 32.328125 L 8.839844 31.707031 C 8.921875 34.285156 8.976562 35.96875 9.390625 38.398438 L 14.800781 38.539062 L 9.886719 40.664062 C 10.121094 42.085938 10.964844 44.058594 11.503906 45.410156 C 12.125 46.929688 12.9375 48.351562 13.628906 49.691406 L 17.132812 43.300781 C 17.410156 42.773438 17.660156 42.222656 17.960938 41.671875 C 18.484375 40.664062 18.527344 40.953125 18.292969 39.695312 C 17.492188 35.390625 17.878906 30.808594 19.535156 26.929688 C 20.625 24.375 21.703125 22.859375 23.371094 20.761719 C 24.738281 19.089844 27.015625 17.476562 28.90625 16.371094 C 30.964844 15.171875 33.683594 14.121094 36.304688 13.75 C 42.667969 12.8125 47.070312 14.441406 52.121094 17.433594 C 52.234375 17.242188 52.644531 16.054688 52.8125 15.722656 C 53.089844 15.128906 53.378906 14.578125 53.695312 14.054688 C 54.9375 11.925781 56.523438 10.175781 58.414062 8.558594 C 59.09375 7.980469 60.417969 7.179688 61.300781 6.726562 C 61.3125 6.695312 61.410156 6.667969 61.4375 6.667969 L 61.546875 6.558594 C 60.707031 5.839844 55.53125 3.535156 54.066406 3.148438 C 53.515625 3.785156 53.003906 4.640625 52.550781 5.34375 C 52.039062 6.128906 51.570312 6.820312 51.074219 7.59375 L 47.996094 11.96875 C 47.996094 11.96875 48.863281 9.898438 48.960938 9.621094 L 50.960938 4.832031 C 51.308594 4.089844 51.75 3.21875 51.984375 2.488281 C 49.320312 1.796875 44.074219 0.832031 41.4375 1.230469 C 41.34375 2.625 40.5 9.898438 40.128906 10.644531 C 39.867188 7.621094 39.535156 4.296875 39.535156 1.230469 C 36.179688 1.121094 30.730469 2.75 27.96875 3.921875 C 28.382812 6.128906 30.09375 11.445312 30.175781 13.128906 L 25.980469 4.832031 C 25.539062 4.984375 22.019531 7 21.441406 7.648438 L 24.574219 13.652344 C 24.917969 14.300781 25.347656 15.074219 25.539062 15.667969 L 19.851562 8.90625 C 18.84375 9.539062 17.519531 11.167969 16.773438 11.902344 L 15.007812 14.148438 C 14.316406 15.0625 12.839844 17.019531 12.605469 17.917969 C 13.089844 18.25 13.460938 18.621094 13.988281 19.078125 L 16.679688 21.480469 C 16.914062 21.699219 17.105469 21.851562 17.367188 22.070312 C 17.699219 22.363281 17.839844 22.488281 18.074219 22.777344 Z M 11.515625 19.820312 " fill-opacity="1" fill-rule="evenodd"/><g clip-path="url(#85a16a7bea)"><path fill="#ff0000" d="M 40.460938 65.960938 C 40.460938 65.960938 40.429688 66.003906 40.417969 65.976562 Z M 37.007812 59.183594 C 36.882812 59.101562 37.148438 59.296875 37.007812 59.183594 Z M 28.835938 53.238281 C 29.265625 53.664062 30.425781 54.175781 31.058594 54.546875 C 32.261719 55.265625 33.144531 55.929688 34.191406 56.714844 C 34.550781 56.992188 34.800781 57.210938 35.160156 57.5 C 35.863281 58.082031 36.347656 58.453125 36.996094 59.144531 C 34.980469 57.984375 32.578125 56.949219 30.21875 55.96875 C 25.941406 54.175781 27.085938 54.175781 23.457031 56.050781 C 25.113281 56.699219 26.683594 57.253906 28.328125 57.957031 C 31.972656 59.558594 36.441406 62.375 39.535156 65.132812 C 39.851562 65.410156 40.183594 65.589844 40.417969 65.894531 C 36.582031 63.933594 32.386719 61.863281 28.191406 60.070312 C 26.023438 59.144531 23.8125 58.425781 21.46875 57.765625 C 20.558594 57.5 20.515625 57.308594 19.769531 57.722656 C 18.597656 58.359375 16.816406 59.019531 15.492188 59.738281 C 15.464844 59.75 15.324219 59.835938 15.285156 59.847656 L 15.148438 59.945312 C 21.964844 60.191406 28.949219 63.285156 34.414062 65.824219 C 40.265625 68.542969 46.820312 70.847656 54.027344 71.332031 L 53.363281 70.640625 C 53.089844 70.433594 52.949219 70.296875 52.6875 70.035156 L 50.285156 67.34375 C 49.96875 66.898438 49.582031 66.347656 49.265625 65.894531 C 46.3125 61.460938 47.375 62.386719 48.546875 59.019531 C 48.121094 58.507812 36.914062 52.0625 35.476562 51.207031 C 33.738281 50.171875 34.207031 50.53125 34.070312 49.648438 C 33.792969 49.621094 34.011719 49.523438 33.421875 50.0625 L 30.175781 52.421875 C 29.804688 52.644531 29.253906 53.070312 28.835938 53.238281 Z M 28.835938 53.238281 " fill-opacity="1" fill-rule="evenodd"/></g><g transform="matrix(1, 0, 0, 1, 70, 11)"><g clip-path="url(#0c534fb037)"><g fill="#ffffff" fill-opacity="1"><g transform="translate(0.337993, 37.631502)"><g><path d="M 20.578125 -25.671875 L 20.578125 -21.40625 L 13.171875 -21.40625 L 13.171875 0 L 8.109375 0 L 8.109375 -21.40625 L 0.703125 -21.40625 L 0.703125 -25.671875 Z M 20.578125 -25.671875 "/></g></g></g><g fill="#ffffff" fill-opacity="1"><g transform="translate(21.182621, 37.631502)"><g><path d="M 5.21875 -21.6875 C 4.34375 -21.6875 3.628906 -21.953125 3.078125 -22.484375 C 2.523438 -23.015625 2.25 -23.703125 2.25 -24.546875 C 2.25 -25.378906 2.523438 -26.0625 3.078125 -26.59375 C 3.628906 -27.125 4.34375 -27.390625 5.21875 -27.390625 C 5.800781 -27.390625 6.320312 -27.265625 6.78125 -27.015625 C 7.238281 -26.773438 7.59375 -26.441406 7.84375 -26.015625 C 8.09375 -25.585938 8.21875 -25.097656 8.21875 -24.546875 C 8.21875 -24.003906 8.09375 -23.515625 7.84375 -23.078125 C 7.59375 -22.640625 7.238281 -22.296875 6.78125 -22.046875 C 6.320312 -21.804688 5.800781 -21.6875 5.21875 -21.6875 Z M 2.796875 0 L 2.796875 -19.375 L 7.65625 -19.375 L 7.65625 0 Z M 2.796875 0 "/></g></g></g><g fill="#ffffff" fill-opacity="1"><g transform="translate(31.613788, 37.631502)"><g><path d="M 13.359375 -4.625 L 14.625 -1.015625 C 14.101562 -0.585938 13.441406 -0.25 12.640625 0 C 11.847656 0.25 10.945312 0.375 9.9375 0.375 C 7.84375 0.375 6.25 -0.195312 5.15625 -1.34375 C 4.070312 -2.488281 3.53125 -4.148438 3.53125 -6.328125 L 3.53125 -15.53125 L 0.578125 -15.53125 L 0.578125 -19.390625 L 3.53125 -19.390625 L 3.53125 -23.171875 L 8.390625 -23.953125 L 8.390625 -19.390625 L 13.890625 -19.390625 L 13.890625 -15.53125 L 8.390625 -15.53125 L 8.390625 -6.671875 C 8.390625 -5.710938 8.585938 -5.015625 8.984375 -4.578125 C 9.390625 -4.140625 9.972656 -3.921875 10.734375 -3.921875 C 11.597656 -3.921875 12.351562 -4.15625 13 -4.625 Z M 13.359375 -4.625 "/></g></g></g><g fill="#ffffff" fill-opacity="1"><g transform="translate(46.663467, 37.631502)"><g><path d="M 7.546875 0.375 C 6.304688 0.375 5.226562 0.144531 4.3125 -0.3125 C 3.40625 -0.769531 2.703125 -1.441406 2.203125 -2.328125 C 1.710938 -3.210938 1.46875 -4.273438 1.46875 -5.515625 C 1.46875 -6.660156 1.710938 -7.625 2.203125 -8.40625 C 2.703125 -9.1875 3.46875 -9.820312 4.5 -10.3125 C 5.53125 -10.8125 6.875 -11.195312 8.53125 -11.46875 C 9.695312 -11.65625 10.578125 -11.859375 11.171875 -12.078125 C 11.773438 -12.304688 12.179688 -12.5625 12.390625 -12.84375 C 12.609375 -13.125 12.71875 -13.476562 12.71875 -13.90625 C 12.71875 -14.53125 12.5 -15.003906 12.0625 -15.328125 C 11.632812 -15.660156 10.914062 -15.828125 9.90625 -15.828125 C 8.832031 -15.828125 7.804688 -15.585938 6.828125 -15.109375 C 5.859375 -14.628906 5.015625 -13.992188 4.296875 -13.203125 L 3.953125 -13.203125 L 1.921875 -16.28125 C 2.898438 -17.375 4.097656 -18.222656 5.515625 -18.828125 C 6.929688 -19.429688 8.476562 -19.734375 10.15625 -19.734375 C 12.71875 -19.734375 14.570312 -19.1875 15.71875 -18.09375 C 16.863281 -17.007812 17.4375 -15.46875 17.4375 -13.46875 L 17.4375 -5.0625 C 17.4375 -4.195312 17.816406 -3.765625 18.578125 -3.765625 C 18.867188 -3.765625 19.15625 -3.816406 19.4375 -3.921875 L 19.6875 -3.84375 L 20.046875 -0.453125 C 19.773438 -0.273438 19.394531 -0.128906 18.90625 -0.015625 C 18.425781 0.0859375 17.898438 0.140625 17.328125 0.140625 C 16.171875 0.140625 15.265625 -0.078125 14.609375 -0.515625 C 13.960938 -0.960938 13.5 -1.660156 13.21875 -2.609375 L 12.859375 -2.65625 C 11.910156 -0.632812 10.140625 0.375 7.546875 0.375 Z M 9.09375 -3.265625 C 10.21875 -3.265625 11.113281 -3.640625 11.78125 -4.390625 C 12.457031 -5.148438 12.796875 -6.203125 12.796875 -7.546875 L 12.796875 -9.515625 L 12.46875 -9.59375 C 12.175781 -9.351562 11.789062 -9.15625 11.3125 -9 C 10.84375 -8.84375 10.160156 -8.6875 9.265625 -8.53125 C 8.210938 -8.351562 7.457031 -8.050781 7 -7.625 C 6.539062 -7.195312 6.3125 -6.59375 6.3125 -5.8125 C 6.3125 -4.976562 6.554688 -4.34375 7.046875 -3.90625 C 7.535156 -3.476562 8.21875 -3.265625 9.09375 -3.265625 Z M 9.09375 -3.265625 "/></g></g></g><g fill="#ffffff" fill-opacity="1"><g transform="translate(67.086777, 37.631502)"><g><path d="M 2.796875 0 L 2.796875 -19.375 L 7.46875 -19.375 L 7.46875 -16.53125 L 7.828125 -16.4375 C 9.035156 -18.632812 10.992188 -19.734375 13.703125 -19.734375 C 15.929688 -19.734375 17.570312 -19.125 18.625 -17.90625 C 19.675781 -16.695312 20.203125 -14.925781 20.203125 -12.59375 L 20.203125 0 L 15.328125 0 L 15.328125 -12 C 15.328125 -13.28125 15.066406 -14.203125 14.546875 -14.765625 C 14.035156 -15.335938 13.210938 -15.625 12.078125 -15.625 C 10.691406 -15.625 9.609375 -15.171875 8.828125 -14.265625 C 8.046875 -13.367188 7.65625 -11.957031 7.65625 -10.03125 L 7.65625 0 Z M 2.796875 0 "/></g></g></g><g fill="#ffffff" fill-opacity="1"><g transform="translate(89.775441, 37.631502)"><g><path d="M 13.546875 0.375 C 11.066406 0.375 9.226562 -0.550781 8.03125 -2.40625 L 7.65625 -2.328125 L 7.65625 0 L 2.796875 0 L 2.796875 -27.15625 L 7.65625 -27.15625 L 7.65625 -17.09375 L 8.03125 -17.015625 C 8.695312 -17.941406 9.484375 -18.625 10.390625 -19.0625 C 11.296875 -19.507812 12.378906 -19.734375 13.640625 -19.734375 C 15.210938 -19.734375 16.582031 -19.363281 17.75 -18.625 C 18.925781 -17.894531 19.84375 -16.773438 20.5 -15.265625 C 21.15625 -13.765625 21.484375 -11.898438 21.484375 -9.671875 C 21.484375 -7.472656 21.140625 -5.617188 20.453125 -4.109375 C 19.773438 -2.609375 18.835938 -1.484375 17.640625 -0.734375 C 16.453125 0.00390625 15.085938 0.375 13.546875 0.375 Z M 12.0625 -3.765625 C 13.488281 -3.765625 14.578125 -4.238281 15.328125 -5.1875 C 16.078125 -6.144531 16.453125 -7.640625 16.453125 -9.671875 C 16.453125 -11.722656 16.078125 -13.222656 15.328125 -14.171875 C 14.578125 -15.128906 13.488281 -15.609375 12.0625 -15.609375 C 10.695312 -15.609375 9.613281 -15.113281 8.8125 -14.125 C 8.007812 -13.144531 7.609375 -11.660156 7.609375 -9.671875 C 7.609375 -7.679688 8.007812 -6.195312 8.8125 -5.21875 C 9.613281 -4.25 10.695312 -3.765625 12.0625 -3.765625 Z M 12.0625 -3.765625 "/></g></g></g><g fill="#ffffff" fill-opacity="1"><g transform="translate(112.973371, 37.631502)"><g><path d="M 7.546875 0.375 C 6.304688 0.375 5.226562 0.144531 4.3125 -0.3125 C 3.40625 -0.769531 2.703125 -1.441406 2.203125 -2.328125 C 1.710938 -3.210938 1.46875 -4.273438 1.46875 -5.515625 C 1.46875 -6.660156 1.710938 -7.625 2.203125 -8.40625 C 2.703125 -9.1875 3.46875 -9.820312 4.5 -10.3125 C 5.53125 -10.8125 6.875 -11.195312 8.53125 -11.46875 C 9.695312 -11.65625 10.578125 -11.859375 11.171875 -12.078125 C 11.773438 -12.304688 12.179688 -12.5625 12.390625 -12.84375 C 12.609375 -13.125 12.71875 -13.476562 12.71875 -13.90625 C 12.71875 -14.53125 12.5 -15.003906 12.0625 -15.328125 C 11.632812 -15.660156 10.914062 -15.828125 9.90625 -15.828125 C 8.832031 -15.828125 7.804688 -15.585938 6.828125 -15.109375 C 5.859375 -14.628906 5.015625 -13.992188 4.296875 -13.203125 L 3.953125 -13.203125 L 1.921875 -16.28125 C 2.898438 -17.375 4.097656 -18.222656 5.515625 -18.828125 C 6.929688 -19.429688 8.476562 -19.734375 10.15625 -19.734375 C 12.71875 -19.734375 14.570312 -19.1875 15.71875 -18.09375 C 16.863281 -17.007812 17.4375 -15.46875 17.4375 -13.46875 L 17.4375 -5.0625 C 17.4375 -4.195312 17.816406 -3.765625 18.578125 -3.765625 C 18.867188 -3.765625 19.15625 -3.816406 19.4375 -3.921875 L 19.6875 -3.84375 L 20.046875 -0.453125 C 19.773438 -0.273438 19.394531 -0.128906 18.90625 -0.015625 C 18.425781 0.0859375 17.898438 0.140625 17.328125 0.140625 C 16.171875 0.140625 15.265625 -0.078125 14.609375 -0.515625 C 13.960938 -0.960938 13.5 -1.660156 13.21875 -2.609375 L 12.859375 -2.65625 C 11.910156 -0.632812 10.140625 0.375 7.546875 0.375 Z M 9.09375 -3.265625 C 10.21875 -3.265625 11.113281 -3.640625 11.78125 -4.390625 C 12.457031 -5.148438 12.796875 -6.203125 12.796875 -7.546875 L 12.796875 -9.515625 L 12.46875 -9.59375 C 12.175781 -9.351562 11.789062 -9.15625 11.3125 -9 C 10.84375 -8.84375 10.160156 -8.6875 9.265625 -8.53125 C 8.210938 -8.351562 7.457031 -8.050781 7 -7.625 C 6.539062 -7.195312 6.3125 -6.59375 6.3125 -5.8125 C 6.3125 -4.976562 6.554688 -4.34375 7.046875 -3.90625 C 7.535156 -3.476562 8.21875 -3.265625 9.09375 -3.265625 Z M 9.09375 -3.265625 "/></g></g></g><g fill="#ffffff" fill-opacity="1"><g transform="translate(133.396681, 37.631502)"><g><path d="M 9.0625 0.375 C 7.738281 0.375 6.523438 0.21875 5.421875 -0.09375 C 4.328125 -0.40625 3.390625 -0.832031 2.609375 -1.375 C 1.828125 -1.925781 1.25 -2.550781 0.875 -3.25 L 3.578125 -6.171875 L 3.953125 -6.171875 C 4.597656 -5.296875 5.359375 -4.640625 6.234375 -4.203125 C 7.109375 -3.773438 8.0625 -3.5625 9.09375 -3.5625 C 10.039062 -3.5625 10.753906 -3.726562 11.234375 -4.0625 C 11.710938 -4.40625 11.953125 -4.894531 11.953125 -5.53125 C 11.953125 -6.019531 11.78125 -6.429688 11.4375 -6.765625 C 11.09375 -7.097656 10.535156 -7.359375 9.765625 -7.546875 L 7.203125 -8.171875 C 5.285156 -8.628906 3.882812 -9.328125 3 -10.265625 C 2.113281 -11.203125 1.671875 -12.398438 1.671875 -13.859375 C 1.671875 -15.066406 1.976562 -16.113281 2.59375 -17 C 3.207031 -17.882812 4.070312 -18.5625 5.1875 -19.03125 C 6.300781 -19.5 7.601562 -19.734375 9.09375 -19.734375 C 10.84375 -19.734375 12.289062 -19.484375 13.4375 -18.984375 C 14.582031 -18.484375 15.476562 -17.8125 16.125 -16.96875 L 13.515625 -14.15625 L 13.171875 -14.15625 C 12.628906 -14.757812 12.019531 -15.203125 11.34375 -15.484375 C 10.675781 -15.765625 9.925781 -15.90625 9.09375 -15.90625 C 7.175781 -15.90625 6.21875 -15.3125 6.21875 -14.125 C 6.21875 -13.613281 6.394531 -13.203125 6.75 -12.890625 C 7.101562 -12.578125 7.734375 -12.320312 8.640625 -12.125 L 11.03125 -11.59375 C 13 -11.164062 14.4375 -10.488281 15.34375 -9.5625 C 16.25 -8.632812 16.703125 -7.382812 16.703125 -5.8125 C 16.703125 -4.582031 16.394531 -3.5 15.78125 -2.5625 C 15.175781 -1.625 14.300781 -0.898438 13.15625 -0.390625 C 12.007812 0.117188 10.644531 0.375 9.0625 0.375 Z M 9.0625 0.375 "/></g></g></g><g fill="#ffffff" fill-opacity="1"><g transform="translate(151.256102, 37.631502)"><g><path d="M 19.140625 -8.59375 L 6.6875 -8.59375 C 6.832031 -6.90625 7.3125 -5.675781 8.125 -4.90625 C 8.945312 -4.144531 10.066406 -3.765625 11.484375 -3.765625 C 12.597656 -3.765625 13.5 -3.96875 14.1875 -4.375 C 14.882812 -4.789062 15.441406 -5.421875 15.859375 -6.265625 L 16.234375 -6.265625 L 19.453125 -4.203125 C 18.828125 -2.835938 17.875 -1.734375 16.59375 -0.890625 C 15.320312 -0.046875 13.617188 0.375 11.484375 0.375 C 9.484375 0.375 7.753906 -0.00390625 6.296875 -0.765625 C 4.835938 -1.535156 3.710938 -2.671875 2.921875 -4.171875 C 2.128906 -5.671875 1.734375 -7.503906 1.734375 -9.671875 C 1.734375 -11.878906 2.148438 -13.738281 2.984375 -15.25 C 3.816406 -16.757812 4.941406 -17.882812 6.359375 -18.625 C 7.773438 -19.363281 9.367188 -19.734375 11.140625 -19.734375 C 13.878906 -19.734375 15.976562 -19.007812 17.4375 -17.5625 C 18.894531 -16.113281 19.625 -13.984375 19.625 -11.171875 C 19.625 -10.148438 19.585938 -9.359375 19.515625 -8.796875 Z M 14.96875 -11.734375 C 14.914062 -13.203125 14.570312 -14.273438 13.9375 -14.953125 C 13.300781 -15.628906 12.367188 -15.96875 11.140625 -15.96875 C 8.679688 -15.96875 7.234375 -14.554688 6.796875 -11.734375 Z M 14.96875 -11.734375 "/></g></g></g><g fill="#ffffff" fill-opacity="1"><g transform="translate(172.311604, 37.631502)"><g/></g></g><g fill="#ffffff" fill-opacity="1"><g transform="translate(180.793512, 37.631502)"><g><path d="M 12.578125 -25.671875 C 16.742188 -25.671875 19.921875 -24.59375 22.109375 -22.4375 C 24.304688 -20.289062 25.40625 -17.09375 25.40625 -12.84375 C 25.40625 -8.601562 24.304688 -5.398438 22.109375 -3.234375 C 19.921875 -1.078125 16.742188 0 12.578125 0 L 3.34375 0 L 3.34375 -25.671875 Z M 12.28125 -4.265625 C 14.925781 -4.265625 16.90625 -4.941406 18.21875 -6.296875 C 19.53125 -7.648438 20.1875 -9.832031 20.1875 -12.84375 C 20.1875 -15.851562 19.53125 -18.03125 18.21875 -19.375 C 16.90625 -20.726562 14.925781 -21.40625 12.28125 -21.40625 L 8.40625 -21.40625 L 8.40625 -4.265625 Z M 12.28125 -4.265625 "/></g></g></g><g fill="#ffffff" fill-opacity="1"><g transform="translate(208.241176, 37.631502)"><g><path d="M 11.25 0.375 C 9.351562 0.375 7.6875 -0.015625 6.25 -0.796875 C 4.820312 -1.578125 3.710938 -2.71875 2.921875 -4.21875 C 2.128906 -5.726562 1.734375 -7.546875 1.734375 -9.671875 C 1.734375 -11.804688 2.128906 -13.628906 2.921875 -15.140625 C 3.710938 -16.648438 4.820312 -17.789062 6.25 -18.5625 C 7.6875 -19.34375 9.351562 -19.734375 11.25 -19.734375 C 13.15625 -19.734375 14.820312 -19.34375 16.25 -18.5625 C 17.6875 -17.789062 18.800781 -16.648438 19.59375 -15.140625 C 20.394531 -13.628906 20.796875 -11.804688 20.796875 -9.671875 C 20.796875 -7.546875 20.394531 -5.726562 19.59375 -4.21875 C 18.800781 -2.71875 17.6875 -1.578125 16.25 -0.796875 C 14.820312 -0.015625 13.15625 0.375 11.25 0.375 Z M 11.25 -3.765625 C 14.257812 -3.765625 15.765625 -5.734375 15.765625 -9.671875 C 15.765625 -11.722656 15.378906 -13.222656 14.609375 -14.171875 C 13.835938 -15.128906 12.71875 -15.609375 11.25 -15.609375 C 8.25 -15.609375 6.75 -13.628906 6.75 -9.671875 C 6.75 -5.734375 8.25 -3.765625 11.25 -3.765625 Z M 11.25 -3.765625 "/></g></g></g><g fill="#ffffff" fill-opacity="1"><g transform="translate(230.754232, 37.631502)"><g><path d="M 11.296875 0.375 C 9.421875 0.375 7.757812 -0.015625 6.3125 -0.796875 C 4.875 -1.578125 3.75 -2.722656 2.9375 -4.234375 C 2.132812 -5.742188 1.734375 -7.554688 1.734375 -9.671875 C 1.734375 -11.804688 2.132812 -13.628906 2.9375 -15.140625 C 3.75 -16.648438 4.867188 -17.789062 6.296875 -18.5625 C 7.734375 -19.34375 9.367188 -19.734375 11.203125 -19.734375 C 15.285156 -19.734375 17.90625 -18.253906 19.0625 -15.296875 L 15.71875 -12.90625 L 15.34375 -12.90625 C 14.945312 -13.820312 14.429688 -14.5 13.796875 -14.9375 C 13.160156 -15.382812 12.296875 -15.609375 11.203125 -15.609375 C 9.796875 -15.609375 8.703125 -15.125 7.921875 -14.15625 C 7.140625 -13.1875 6.75 -11.691406 6.75 -9.671875 C 6.75 -7.679688 7.144531 -6.195312 7.9375 -5.21875 C 8.726562 -4.25 9.847656 -3.765625 11.296875 -3.765625 C 12.347656 -3.765625 13.238281 -4.046875 13.96875 -4.609375 C 14.695312 -5.179688 15.222656 -6 15.546875 -7.0625 L 15.90625 -7.09375 L 19.375 -5.203125 C 18.882812 -3.554688 17.972656 -2.210938 16.640625 -1.171875 C 15.304688 -0.140625 13.523438 0.375 11.296875 0.375 Z M 11.296875 0.375 "/></g></g></g><g fill="#ffffff" fill-opacity="1"><g transform="translate(250.720959, 37.631502)"><g><path d="M 8.875 0.375 C 6.695312 0.375 5.085938 -0.21875 4.046875 -1.40625 C 3.015625 -2.601562 2.5 -4.3125 2.5 -6.53125 L 2.5 -19.375 L 7.359375 -19.375 L 7.359375 -7.140625 C 7.359375 -5.960938 7.613281 -5.097656 8.125 -4.546875 C 8.632812 -4.003906 9.421875 -3.734375 10.484375 -3.734375 C 11.828125 -3.734375 12.875 -4.175781 13.625 -5.0625 C 14.375 -5.945312 14.75 -7.335938 14.75 -9.234375 L 14.75 -19.375 L 19.625 -19.375 L 19.625 0 L 14.953125 0 L 14.953125 -2.84375 L 14.578125 -2.9375 C 13.953125 -1.820312 13.191406 -0.988281 12.296875 -0.4375 C 11.398438 0.101562 10.257812 0.375 8.875 0.375 Z M 8.875 0.375 "/></g></g></g><g fill="#ffffff" fill-opacity="1"><g transform="translate(273.128649, 37.631502)"><g><path d="M 2.796875 0 L 2.796875 -19.375 L 7.46875 -19.375 L 7.46875 -16.765625 L 7.828125 -16.703125 C 8.460938 -17.742188 9.203125 -18.507812 10.046875 -19 C 10.898438 -19.488281 11.988281 -19.734375 13.3125 -19.734375 C 14.78125 -19.734375 15.957031 -19.441406 16.84375 -18.859375 C 17.726562 -18.285156 18.378906 -17.441406 18.796875 -16.328125 L 19.15625 -16.328125 C 19.757812 -17.492188 20.53125 -18.351562 21.46875 -18.90625 C 22.414062 -19.457031 23.585938 -19.734375 24.984375 -19.734375 C 29.003906 -19.734375 31.015625 -17.5 31.015625 -13.03125 L 31.015625 0 L 26.15625 0 L 26.15625 -12.421875 C 26.15625 -13.554688 25.929688 -14.375 25.484375 -14.875 C 25.035156 -15.375 24.320312 -15.625 23.34375 -15.625 C 20.675781 -15.625 19.34375 -13.84375 19.34375 -10.28125 L 19.34375 0 L 14.46875 0 L 14.46875 -12.421875 C 14.46875 -13.554688 14.242188 -14.375 13.796875 -14.875 C 13.347656 -15.375 12.628906 -15.625 11.640625 -15.625 C 10.390625 -15.625 9.410156 -15.207031 8.703125 -14.375 C 8.003906 -13.539062 7.65625 -12.207031 7.65625 -10.375 L 7.65625 0 Z M 2.796875 0 "/></g></g></g><g fill="#ffffff" fill-opacity="1"><g transform="translate(306.634819, 37.631502)"><g><path d="M 19.140625 -8.59375 L 6.6875 -8.59375 C 6.832031 -6.90625 7.3125 -5.675781 8.125 -4.90625 C 8.945312 -4.144531 10.066406 -3.765625 11.484375 -3.765625 C 12.597656 -3.765625 13.5 -3.96875 14.1875 -4.375 C 14.882812 -4.789062 15.441406 -5.421875 15.859375 -6.265625 L 16.234375 -6.265625 L 19.453125 -4.203125 C 18.828125 -2.835938 17.875 -1.734375 16.59375 -0.890625 C 15.320312 -0.046875 13.617188 0.375 11.484375 0.375 C 9.484375 0.375 7.753906 -0.00390625 6.296875 -0.765625 C 4.835938 -1.535156 3.710938 -2.671875 2.921875 -4.171875 C 2.128906 -5.671875 1.734375 -7.503906 1.734375 -9.671875 C 1.734375 -11.878906 2.148438 -13.738281 2.984375 -15.25 C 3.816406 -16.757812 4.941406 -17.882812 6.359375 -18.625 C 7.773438 -19.363281 9.367188 -19.734375 11.140625 -19.734375 C 13.878906 -19.734375 15.976562 -19.007812 17.4375 -17.5625 C 18.894531 -16.113281 19.625 -13.984375 19.625 -11.171875 C 19.625 -10.148438 19.585938 -9.359375 19.515625 -8.796875 Z M 14.96875 -11.734375 C 14.914062 -13.203125 14.570312 -14.273438 13.9375 -14.953125 C 13.300781 -15.628906 12.367188 -15.96875 11.140625 -15.96875 C 8.679688 -15.96875 7.234375 -14.554688 6.796875 -11.734375 Z M 14.96875 -11.734375 "/></g></g></g><g fill="#ffffff" fill-opacity="1"><g transform="translate(327.690321, 37.631502)"><g><path d="M 2.796875 0 L 2.796875 -19.375 L 7.46875 -19.375 L 7.46875 -16.53125 L 7.828125 -16.4375 C 9.035156 -18.632812 10.992188 -19.734375 13.703125 -19.734375 C 15.929688 -19.734375 17.570312 -19.125 18.625 -17.90625 C 19.675781 -16.695312 20.203125 -14.925781 20.203125 -12.59375 L 20.203125 0 L 15.328125 0 L 15.328125 -12 C 15.328125 -13.28125 15.066406 -14.203125 14.546875 -14.765625 C 14.035156 -15.335938 13.210938 -15.625 12.078125 -15.625 C 10.691406 -15.625 9.609375 -15.171875 8.828125 -14.265625 C 8.046875 -13.367188 7.65625 -11.957031 7.65625 -10.03125 L 7.65625 0 Z M 2.796875 0 "/></g></g></g><g fill="#ffffff" fill-opacity="1"><g transform="translate(350.238442, 37.631502)"><g><path d="M 13.359375 -4.625 L 14.625 -1.015625 C 14.101562 -0.585938 13.441406 -0.25 12.640625 0 C 11.847656 0.25 10.945312 0.375 9.9375 0.375 C 7.84375 0.375 6.25 -0.195312 5.15625 -1.34375 C 4.070312 -2.488281 3.53125 -4.148438 3.53125 -6.328125 L 3.53125 -15.53125 L 0.578125 -15.53125 L 0.578125 -19.390625 L 3.53125 -19.390625 L 3.53125 -23.171875 L 8.390625 -23.953125 L 8.390625 -19.390625 L 13.890625 -19.390625 L 13.890625 -15.53125 L 8.390625 -15.53125 L 8.390625 -6.671875 C 8.390625 -5.710938 8.585938 -5.015625 8.984375 -4.578125 C 9.390625 -4.140625 9.972656 -3.921875 10.734375 -3.921875 C 11.597656 -3.921875 12.351562 -4.15625 13 -4.625 Z M 13.359375 -4.625 "/></g></g></g><g fill="#ffffff" fill-opacity="1"><g transform="translate(365.28815, 37.631502)"><g><path d="M 7.546875 0.375 C 6.304688 0.375 5.226562 0.144531 4.3125 -0.3125 C 3.40625 -0.769531 2.703125 -1.441406 2.203125 -2.328125 C 1.710938 -3.210938 1.46875 -4.273438 1.46875 -5.515625 C 1.46875 -6.660156 1.710938 -7.625 2.203125 -8.40625 C 2.703125 -9.1875 3.46875 -9.820312 4.5 -10.3125 C 5.53125 -10.8125 6.875 -11.195312 8.53125 -11.46875 C 9.695312 -11.65625 10.578125 -11.859375 11.171875 -12.078125 C 11.773438 -12.304688 12.179688 -12.5625 12.390625 -12.84375 C 12.609375 -13.125 12.71875 -13.476562 12.71875 -13.90625 C 12.71875 -14.53125 12.5 -15.003906 12.0625 -15.328125 C 11.632812 -15.660156 10.914062 -15.828125 9.90625 -15.828125 C 8.832031 -15.828125 7.804688 -15.585938 6.828125 -15.109375 C 5.859375 -14.628906 5.015625 -13.992188 4.296875 -13.203125 L 3.953125 -13.203125 L 1.921875 -16.28125 C 2.898438 -17.375 4.097656 -18.222656 5.515625 -18.828125 C 6.929688 -19.429688 8.476562 -19.734375 10.15625 -19.734375 C 12.71875 -19.734375 14.570312 -19.1875 15.71875 -18.09375 C 16.863281 -17.007812 17.4375 -15.46875 17.4375 -13.46875 L 17.4375 -5.0625 C 17.4375 -4.195312 17.816406 -3.765625 18.578125 -3.765625 C 18.867188 -3.765625 19.15625 -3.816406 19.4375 -3.921875 L 19.6875 -3.84375 L 20.046875 -0.453125 C 19.773438 -0.273438 19.394531 -0.128906 18.90625 -0.015625 C 18.425781 0.0859375 17.898438 0.140625 17.328125 0.140625 C 16.171875 0.140625 15.265625 -0.078125 14.609375 -0.515625 C 13.960938 -0.960938 13.5 -1.660156 13.21875 -2.609375 L 12.859375 -2.65625 C 11.910156 -0.632812 10.140625 0.375 7.546875 0.375 Z M 9.09375 -3.265625 C 10.21875 -3.265625 11.113281 -3.640625 11.78125 -4.390625 C 12.457031 -5.148438 12.796875 -6.203125 12.796875 -7.546875 L 12.796875 -9.515625 L 12.46875 -9.59375 C 12.175781 -9.351562 11.789062 -9.15625 11.3125 -9 C 10.84375 -8.84375 10.160156 -8.6875 9.265625 -8.53125 C 8.210938 -8.351562 7.457031 -8.050781 7 -7.625 C 6.539062 -7.195312 6.3125 -6.59375 6.3125 -5.8125 C 6.3125 -4.976562 6.554688 -4.34375 7.046875 -3.90625 C 7.535156 -3.476562 8.21875 -3.265625 9.09375 -3.265625 Z M 9.09375 -3.265625 "/></g></g></g><g fill="#ffffff" fill-opacity="1"><g transform="translate(385.483083, 37.631502)"><g><path d="M 13.359375 -4.625 L 14.625 -1.015625 C 14.101562 -0.585938 13.441406 -0.25 12.640625 0 C 11.847656 0.25 10.945312 0.375 9.9375 0.375 C 7.84375 0.375 6.25 -0.195312 5.15625 -1.34375 C 4.070312 -2.488281 3.53125 -4.148438 3.53125 -6.328125 L 3.53125 -15.53125 L 0.578125 -15.53125 L 0.578125 -19.390625 L 3.53125 -19.390625 L 3.53125 -23.171875 L 8.390625 -23.953125 L 8.390625 -19.390625 L 13.890625 -19.390625 L 13.890625 -15.53125 L 8.390625 -15.53125 L 8.390625 -6.671875 C 8.390625 -5.710938 8.585938 -5.015625 8.984375 -4.578125 C 9.390625 -4.140625 9.972656 -3.921875 10.734375 -3.921875 C 11.597656 -3.921875 12.351562 -4.15625 13 -4.625 Z M 13.359375 -4.625 "/></g></g></g><g fill="#ffffff" fill-opacity="1"><g transform="translate(400.532762, 37.631502)"><g><path d="M 5.21875 -21.6875 C 4.34375 -21.6875 3.628906 -21.953125 3.078125 -22.484375 C 2.523438 -23.015625 2.25 -23.703125 2.25 -24.546875 C 2.25 -25.378906 2.523438 -26.0625 3.078125 -26.59375 C 3.628906 -27.125 4.34375 -27.390625 5.21875 -27.390625 C 5.800781 -27.390625 6.320312 -27.265625 6.78125 -27.015625 C 7.238281 -26.773438 7.59375 -26.441406 7.84375 -26.015625 C 8.09375 -25.585938 8.21875 -25.097656 8.21875 -24.546875 C 8.21875 -24.003906 8.09375 -23.515625 7.84375 -23.078125 C 7.59375 -22.640625 7.238281 -22.296875 6.78125 -22.046875 C 6.320312 -21.804688 5.800781 -21.6875 5.21875 -21.6875 Z M 2.796875 0 L 2.796875 -19.375 L 7.65625 -19.375 L 7.65625 0 Z M 2.796875 0 "/></g></g></g><g fill="#ffffff" fill-opacity="1"><g transform="translate(410.963928, 37.631502)"><g><path d="M 11.25 0.375 C 9.351562 0.375 7.6875 -0.015625 6.25 -0.796875 C 4.820312 -1.578125 3.710938 -2.71875 2.921875 -4.21875 C 2.128906 -5.726562 1.734375 -7.546875 1.734375 -9.671875 C 1.734375 -11.804688 2.128906 -13.628906 2.921875 -15.140625 C 3.710938 -16.648438 4.820312 -17.789062 6.25 -18.5625 C 7.6875 -19.34375 9.351562 -19.734375 11.25 -19.734375 C 13.15625 -19.734375 14.820312 -19.34375 16.25 -18.5625 C 17.6875 -17.789062 18.800781 -16.648438 19.59375 -15.140625 C 20.394531 -13.628906 20.796875 -11.804688 20.796875 -9.671875 C 20.796875 -7.546875 20.394531 -5.726562 19.59375 -4.21875 C 18.800781 -2.71875 17.6875 -1.578125 16.25 -0.796875 C 14.820312 -0.015625 13.15625 0.375 11.25 0.375 Z M 11.25 -3.765625 C 14.257812 -3.765625 15.765625 -5.734375 15.765625 -9.671875 C 15.765625 -11.722656 15.378906 -13.222656 14.609375 -14.171875 C 13.835938 -15.128906 12.71875 -15.609375 11.25 -15.609375 C 8.25 -15.609375 6.75 -13.628906 6.75 -9.671875 C 6.75 -5.734375 8.25 -3.765625 11.25 -3.765625 Z M 11.25 -3.765625 "/></g></g></g><g fill="#ffffff" fill-opacity="1"><g transform="translate(433.476984, 37.631502)"><g><path d="M 2.796875 0 L 2.796875 -19.375 L 7.46875 -19.375 L 7.46875 -16.53125 L 7.828125 -16.4375 C 9.035156 -18.632812 10.992188 -19.734375 13.703125 -19.734375 C 15.929688 -19.734375 17.570312 -19.125 18.625 -17.90625 C 19.675781 -16.695312 20.203125 -14.925781 20.203125 -12.59375 L 20.203125 0 L 15.328125 0 L 15.328125 -12 C 15.328125 -13.28125 15.066406 -14.203125 14.546875 -14.765625 C 14.035156 -15.335938 13.210938 -15.625 12.078125 -15.625 C 10.691406 -15.625 9.609375 -15.171875 8.828125 -14.265625 C 8.046875 -13.367188 7.65625 -11.957031 7.65625 -10.03125 L 7.65625 0 Z M 2.796875 0 "/></g></g></g></g></g></svg>